<?xml version="1.0" standalone="no"?>
<!DOCTYPE svg PUBLIC "-//W3C//DTD SVG 20010904//EN"
 "http://www.w3.org/TR/2001/REC-SVG-20010904/DTD/svg10.dtd">
<svg version="1.0" xmlns="http://www.w3.org/2000/svg"
 width="2410.000000pt" height="2410.000000pt" viewBox="0 0 2410.000000 2410.000000"
 preserveAspectRatio="xMidYMid meet">
<metadata>
Created by potrace 1.11, written by Peter Selinger 2001-2013
</metadata>
<g transform="translate(0.000000,2410.000000) scale(0.100000,-0.100000)"
fill="#000000" stroke="none">
<path d="M11968 24095 c-1 -2 -30 -6 -63 -9 -54 -4 -309 -86 -530 -170 -38
-15 -77 -29 -85 -31 -8 -2 -37 -13 -65 -23 -27 -11 -99 -38 -158 -61 -373
-143 -922 -379 -1347 -579 -314 -148 -924 -457 -1083 -548 -32 -19 -60 -34
-62 -34 -2 0 -50 -26 -107 -58 -57 -33 -123 -70 -148 -84 -25 -14 -74 -42
-110 -63 -36 -21 -81 -46 -100 -57 -19 -11 -115 -68 -213 -127 -97 -58 -185
-111 -195 -116 -82 -48 -118 -70 -122 -75 -3 -3 -41 -28 -85 -55 -230 -141
-587 -380 -938 -629 -130 -92 -649 -486 -667 -506 -3 -3 -48 -39 -100 -81 -52
-42 -108 -88 -125 -102 -40 -34 -245 -208 -268 -227 -10 -8 -29 -24 -41 -35
-12 -11 -55 -49 -96 -85 -367 -326 -880 -840 -1145 -1150 -17 -19 -48 -55 -71
-80 -36 -40 -120 -141 -239 -285 -394 -478 -832 -1131 -1120 -1670 -105 -195
-345 -690 -345 -710 0 -3 -11 -28 -24 -57 -14 -29 -41 -93 -61 -143 -19 -49
-40 -99 -45 -110 -43 -90 -235 -661 -291 -865 -59 -213 -136 -532 -153 -630
-2 -14 -15 -83 -29 -155 -14 -71 -28 -148 -31 -170 -4 -22 -11 -65 -16 -95 -6
-30 -12 -77 -15 -105 -4 -27 -8 -60 -10 -71 -2 -12 -6 -48 -10 -80 -4 -33 -8
-70 -11 -84 -2 -14 -6 -56 -10 -95 -3 -38 -7 -81 -9 -94 -3 -13 -7 -69 -11
-125 -3 -56 -7 -117 -9 -136 -34 -331 -18 -1222 30 -1665 3 -22 7 -74 10 -115
3 -41 8 -86 10 -100 2 -14 6 -54 10 -90 3 -36 8 -81 11 -100 2 -19 6 -53 8
-75 15 -144 80 -291 175 -395 23 -24 39 -49 37 -55 -3 -5 -30 -66 -62 -135
-51 -114 -171 -414 -179 -450 -2 -8 -13 -44 -25 -80 -55 -167 -127 -479 -145
-625 -4 -27 -8 -61 -10 -75 -10 -63 -25 -204 -31 -295 -14 -188 -7 -643 11
-780 2 -16 7 -52 10 -80 28 -253 87 -551 160 -810 37 -133 80 -274 95 -310 4
-11 27 -74 50 -140 40 -115 107 -285 151 -384 11 -25 33 -73 47 -106 186 -419
534 -1018 846 -1455 302 -425 724 -946 1026 -1270 8 -9 62 -67 120 -130 252
-272 298 -311 414 -355 83 -31 104 -35 202 -40 336 -15 607 211 650 540 23
181 35 233 76 343 l20 54 45 -79 c142 -247 253 -524 316 -783 47 -195 55 -254
62 -431 5 -141 16 -190 66 -296 30 -62 58 -101 112 -157 39 -41 87 -82 106
-93 18 -10 45 -24 59 -32 94 -51 227 -73 352 -57 119 15 199 46 322 127 131
86 287 138 493 166 117 15 529 8 631 -11 10 -2 42 -7 69 -10 86 -12 117 -17
210 -37 50 -11 112 -24 138 -29 27 -6 52 -12 56 -14 4 -3 18 -7 32 -10 141
-26 581 -177 814 -279 28 -12 129 -60 225 -108 662 -326 1264 -789 1725 -1324
28 -32 55 -63 60 -69 41 -44 201 -253 290 -377 118 -165 191 -236 303 -290
204 -98 474 -70 643 68 54 44 81 78 188 233 65 93 287 380 310 400 3 3 44 48
91 100 457 512 1034 951 1670 1270 85 43 189 92 230 110 41 17 90 38 108 46
43 20 306 122 357 139 74 25 240 75 260 80 11 2 65 15 120 29 120 29 281 62
350 71 28 3 64 8 80 11 167 29 563 35 692 10 11 -3 38 -7 58 -10 130 -21 333
-96 376 -138 46 -47 190 -120 261 -134 13 -2 34 -6 48 -9 33 -7 168 -7 200 0
14 3 37 7 53 10 147 27 310 161 395 326 56 107 70 163 77 309 5 98 13 184 20
210 2 8 7 33 10 55 10 73 31 160 68 280 12 39 22 72 22 75 2 7 11 32 52 140
66 175 235 506 252 495 8 -4 37 -99 47 -148 2 -12 8 -44 14 -72 11 -55 15 -82
25 -165 8 -59 38 -157 63 -205 75 -146 230 -269 388 -310 214 -54 462 13 613
165 47 48 274 289 298 316 18 21 140 157 178 198 11 12 40 46 65 75 25 30 50
59 55 65 31 33 230 272 281 336 32 41 67 84 77 95 31 34 309 404 398 530 131
185 305 452 422 648 59 98 107 180 107 183 0 2 12 23 27 47 48 76 259 499 328
657 86 199 170 417 229 599 47 141 112 370 121 423 3 15 9 37 14 50 5 13 9 26
9 31 0 4 3 20 6 35 3 15 8 38 10 52 2 14 14 72 25 130 11 58 23 128 27 155 3
28 8 59 10 70 3 11 7 45 10 75 3 30 7 64 8 76 13 75 21 255 21 484 0 300 -8
440 -35 615 -5 33 -12 80 -15 105 -9 66 -53 283 -76 375 -79 314 -157 536
-290 822 l-38 83 49 51 c55 58 132 204 149 284 12 55 16 89 36 265 3 30 8 71
11 90 2 19 6 64 9 100 2 36 7 85 10 110 7 64 19 226 30 385 23 348 24 1217 1
1340 -2 11 -7 71 -11 133 -3 63 -8 123 -10 134 -3 11 -7 52 -10 92 -3 39 -7
82 -9 96 -3 14 -10 68 -16 120 -6 52 -13 106 -15 120 -3 14 -11 70 -20 125 -8
55 -17 110 -19 121 -2 12 -7 39 -11 60 -3 22 -8 53 -11 69 -6 35 -54 273 -60
295 -2 8 -12 56 -23 105 -36 167 -157 613 -181 670 -4 11 -31 92 -60 180 -161
499 -448 1149 -715 1620 -16 28 -36 64 -45 80 -163 288 -393 644 -599 930 -63
87 -120 166 -127 175 -7 8 -63 80 -125 160 -93 120 -317 396 -354 436 -5 6
-35 39 -65 74 -30 35 -64 73 -75 85 -11 11 -63 68 -115 125 -211 233 -526 548
-786 786 -762 698 -1623 1334 -2599 1921 -235 141 -545 318 -750 428 -44 24
-118 64 -165 89 -113 61 -768 389 -895 448 -55 26 -140 65 -190 88 -108 50
-564 250 -570 250 -3 0 -28 11 -57 24 -215 97 -814 324 -1193 453 -349 118
-448 144 -562 148 -55 2 -103 2 -105 0z m253 -360 c25 -9 54 -17 65 -20 25 -5
500 -167 589 -200 39 -15 93 -35 120 -45 636 -229 1639 -676 2260 -1005 44
-23 121 -64 170 -90 50 -26 113 -60 140 -75 28 -15 82 -44 120 -65 39 -20 99
-54 135 -75 36 -20 85 -48 110 -62 132 -73 560 -330 704 -422 28 -18 78 -50
111 -71 81 -51 486 -322 555 -370 30 -21 84 -59 120 -84 36 -25 67 -48 70 -51
3 -3 28 -21 55 -40 28 -19 55 -38 60 -42 6 -5 89 -67 185 -140 96 -72 206
-156 245 -187 129 -103 340 -275 345 -281 3 -3 46 -39 95 -80 50 -41 108 -91
130 -111 22 -19 90 -80 150 -135 61 -54 132 -119 160 -144 154 -140 695 -691
816 -831 11 -13 35 -40 52 -60 18 -19 52 -60 77 -89 25 -30 65 -77 89 -105
122 -138 385 -479 557 -720 124 -175 364 -537 364 -550 0 -2 13 -23 29 -47 16
-24 44 -70 61 -103 18 -33 39 -67 46 -76 8 -8 14 -18 14 -21 0 -2 35 -67 78
-144 260 -465 508 -1025 675 -1525 50 -147 132 -411 142 -457 2 -9 14 -53 26
-97 49 -185 106 -434 143 -630 13 -65 65 -383 71 -430 3 -27 8 -59 10 -70 2
-11 7 -47 10 -80 4 -33 8 -73 10 -90 6 -46 15 -134 30 -307 16 -186 24 -433
24 -718 0 -353 -11 -620 -44 -1005 -7 -80 -23 -240 -30 -295 -3 -19 -7 -56
-10 -81 -22 -225 -40 -284 -112 -354 -21 -20 -80 -57 -130 -82 -51 -24 -93
-46 -93 -48 0 -3 21 -46 46 -97 37 -76 157 -337 194 -423 70 -164 183 -519
215 -674 40 -192 42 -203 51 -271 3 -25 8 -52 9 -60 2 -9 6 -43 10 -75 4 -33
9 -71 11 -85 23 -144 23 -720 0 -860 -2 -14 -7 -52 -11 -85 -6 -53 -48 -317
-59 -370 -20 -94 -51 -226 -72 -305 -14 -52 -27 -102 -29 -111 -10 -45 -140
-421 -183 -529 -92 -233 -244 -558 -342 -735 -15 -27 -41 -75 -57 -105 -63
-115 -208 -359 -254 -427 -16 -23 -29 -46 -29 -51 0 -6 -3 -12 -7 -14 -5 -1
-35 -43 -67 -93 -166 -253 -380 -547 -608 -833 -78 -97 -145 -179 -148 -182
-3 -3 -57 -66 -120 -140 -63 -74 -124 -144 -135 -156 -11 -11 -45 -49 -75 -84
-30 -35 -68 -78 -85 -96 -375 -403 -369 -397 -460 -429 -143 -50 -293 13 -365
155 -20 40 -52 175 -43 183 7 8 -39 201 -69 286 -29 82 -67 173 -90 216 -6 11
-15 28 -20 38 -4 9 -12 25 -17 35 -4 9 -34 62 -66 117 -32 55 -65 112 -72 128
-8 15 -18 27 -21 27 -16 0 -218 -274 -304 -410 -85 -135 -97 -157 -171 -305
-101 -204 -232 -557 -239 -645 0 -3 -5 -16 -10 -30 -29 -77 -57 -294 -62 -475
-2 -86 -6 -107 -28 -150 -57 -110 -160 -175 -279 -175 -83 0 -115 13 -237 100
-109 77 -244 127 -472 175 -8 1 -40 6 -71 9 -31 4 -67 9 -80 12 -41 9 -430 11
-514 3 -44 -4 -111 -11 -150 -14 -38 -3 -77 -8 -85 -10 -8 -3 -35 -7 -60 -10
-25 -3 -56 -7 -70 -10 -14 -3 -41 -7 -60 -10 -19 -3 -42 -8 -50 -10 -8 -2 -31
-7 -50 -10 -19 -3 -62 -13 -95 -21 -33 -9 -68 -18 -78 -19 -36 -8 -145 -37
-212 -57 -38 -12 -74 -23 -80 -24 -55 -12 -436 -160 -585 -227 -189 -84 -365
-175 -580 -300 -485 -283 -977 -682 -1340 -1086 -41 -46 -79 -89 -85 -95 -18
-19 -100 -119 -146 -176 -64 -79 -176 -230 -247 -335 -81 -118 -112 -149 -188
-186 -97 -48 -195 -45 -300 9 -49 25 -85 65 -160 172 -259 377 -654 804 -1029
1115 -105 87 -315 245 -436 328 -110 75 -385 247 -395 247 -4 0 -15 6 -23 14
-31 28 -428 225 -601 299 -188 80 -260 106 -530 191 -238 75 -480 134 -665
160 -22 3 -56 8 -75 11 -233 36 -675 42 -845 11 -11 -2 -38 -7 -60 -11 -22 -4
-51 -9 -65 -11 -138 -25 -326 -101 -414 -169 -66 -50 -112 -73 -174 -86 -143
-29 -276 40 -338 176 -24 52 -30 92 -38 265 -5 88 -31 285 -41 301 -3 4 -7 24
-11 44 -16 103 -113 389 -191 565 -71 158 -225 442 -275 505 -4 6 -33 46 -64
90 -59 83 -193 255 -200 255 -5 0 -132 -214 -174 -295 -92 -177 -155 -368
-175 -531 -19 -154 -22 -168 -53 -223 -55 -99 -144 -153 -260 -157 -105 -5
-167 21 -246 101 -67 68 -274 289 -352 375 -27 30 -53 59 -59 66 -5 6 -37 41
-70 79 -33 37 -64 73 -70 79 -5 6 -35 40 -65 76 -30 36 -58 67 -61 70 -3 3
-80 97 -171 210 -492 612 -846 1148 -1132 1715 -107 211 -126 251 -204 435
-117 274 -262 700 -288 848 -3 14 -7 29 -10 33 -2 4 -8 27 -13 51 -10 50 -51
246 -56 268 -1 8 -8 51 -15 95 -6 44 -13 91 -15 105 -42 248 -52 808 -21 1035
3 17 7 53 11 80 12 103 41 280 60 361 8 34 16 73 19 85 4 19 59 225 80 299 55
193 243 633 334 783 23 37 42 69 42 70 0 2 -40 23 -89 46 -100 48 -174 112
-202 176 -19 43 -24 68 -33 155 -3 30 -8 64 -10 75 -2 11 -7 52 -10 90 -4 39
-9 81 -11 95 -2 14 -6 57 -10 95 -4 39 -8 88 -10 110 -5 51 -16 185 -20 250
-2 28 -7 106 -11 175 -5 69 -9 337 -9 595 0 420 4 565 20 715 2 25 7 79 10
120 4 41 8 86 10 100 2 14 9 70 15 125 11 100 16 138 25 185 2 14 7 45 10 70
10 73 34 218 55 325 11 55 22 109 24 120 36 183 145 609 203 790 61 195 146
440 201 580 11 28 31 79 45 115 224 576 596 1266 1007 1865 153 222 445 611
576 765 52 61 265 308 289 335 14 17 42 48 62 70 172 193 541 569 752 765 153
142 168 156 246 225 37 33 75 67 84 76 58 56 440 374 571 476 8 6 51 41 95 76
76 60 415 315 462 347 12 8 68 49 125 90 191 139 926 630 942 630 2 0 53 31
113 68 59 37 133 83 163 100 30 18 62 37 70 42 33 21 228 135 280 163 30 16
62 36 71 43 8 8 18 14 21 14 3 0 57 29 119 63 209 117 366 201 553 299 908
471 1882 891 2691 1161 83 27 173 52 200 54 28 3 51 6 53 8 5 4 96 -15 143
-30z"/>
<path d="M11890 23406 c-337 -115 -965 -359 -1215 -470 -16 -8 -127 -57 -245
-109 -374 -166 -592 -269 -975 -463 -165 -83 -320 -162 -345 -176 -25 -14 -79
-43 -120 -65 -141 -75 -198 -106 -470 -260 -417 -236 -1028 -622 -1415 -894
-65 -46 -294 -209 -310 -222 -5 -4 -50 -37 -100 -74 -100 -74 -387 -294 -395
-303 -3 -3 -36 -30 -75 -60 -38 -30 -72 -57 -75 -60 -3 -3 -72 -61 -155 -130
-120 -99 -350 -298 -411 -355 -6 -5 -62 -57 -125 -115 -63 -58 -224 -215 -359
-350 -221 -222 -278 -281 -414 -430 -46 -50 -156 -176 -202 -229 -16 -19 -45
-53 -65 -75 -43 -50 -197 -238 -265 -326 -218 -279 -445 -602 -610 -869 -46
-75 -89 -143 -94 -151 -21 -34 -190 -330 -223 -390 -114 -210 -297 -597 -377
-795 -17 -44 -42 -105 -55 -135 -12 -30 -35 -89 -50 -130 -15 -41 -31 -84 -35
-95 -12 -29 -23 -59 -25 -65 0 -3 -28 -88 -62 -190 -71 -215 -162 -537 -197
-700 -3 -14 -10 -43 -15 -65 -33 -143 -94 -476 -115 -625 -23 -164 -43 -334
-51 -440 -3 -36 -7 -85 -10 -110 -27 -271 -26 -1144 0 -1405 3 -22 7 -74 9
-115 3 -41 7 -95 10 -120 5 -45 10 -98 21 -218 4 -35 8 -71 9 -80 2 -9 9 -70
16 -134 7 -65 16 -118 19 -118 3 0 21 24 40 53 152 235 396 536 641 793 l78
81 0 159 c-1 144 9 458 17 559 2 22 6 83 10 135 13 155 20 232 31 310 3 19 7
58 10 85 2 28 6 61 9 75 2 14 7 50 10 80 4 30 8 57 10 60 1 3 6 32 10 65 3 32
8 62 10 65 1 3 6 28 9 55 11 82 75 400 112 555 133 556 321 1112 544 1605 12
28 31 70 42 95 27 59 207 420 245 490 496 904 1073 1649 1798 2324 97 91 146
135 260 235 25 22 175 147 225 188 46 38 263 204 310 238 30 22 60 43 65 47
53 42 319 225 390 268 13 8 93 58 177 110 84 52 169 103 188 114 19 10 49 26
65 36 408 244 1072 541 1605 717 254 84 722 215 845 237 17 3 105 20 196 40
138 29 243 47 449 81 14 2 48 7 75 11 28 3 58 8 67 9 9 2 48 7 85 10 37 4 70
9 73 10 3 2 48 7 100 10 52 4 97 9 100 10 3 2 50 6 105 10 55 3 114 8 130 10
188 24 1013 24 1250 0 22 -2 78 -7 125 -10 47 -4 96 -8 110 -11 14 -2 55 -6
90 -9 60 -5 178 -19 260 -31 19 -2 67 -9 105 -15 39 -5 95 -14 125 -19 30 -5
71 -12 90 -15 19 -3 62 -11 95 -17 33 -6 69 -12 80 -14 11 -1 29 -5 40 -7 11
-3 76 -17 144 -31 544 -116 1224 -334 1684 -540 29 -13 90 -40 137 -61 97 -43
461 -223 565 -280 280 -152 821 -488 833 -517 2 -5 8 -8 13 -8 8 0 65 -39 114
-78 6 -4 33 -23 60 -42 28 -19 52 -37 55 -40 3 -3 32 -25 65 -49 154 -114 400
-317 605 -500 118 -105 561 -548 655 -655 39 -43 75 -84 80 -90 6 -6 35 -40
65 -76 30 -36 57 -67 61 -70 17 -15 230 -285 321 -405 140 -187 387 -551 473
-697 6 -9 22 -36 36 -60 350 -588 616 -1168 825 -1798 45 -134 123 -392 140
-460 2 -8 19 -76 39 -150 19 -74 37 -148 40 -165 3 -16 10 -47 16 -67 12 -47
95 -468 104 -528 3 -25 8 -58 10 -75 3 -16 7 -48 10 -70 12 -74 14 -91 30
-215 10 -79 18 -156 31 -300 4 -41 8 -88 9 -105 3 -30 13 -210 20 -365 3 -47
5 -174 6 -282 l2 -196 67 -71 c243 -253 455 -517 618 -769 l60 -94 7 64 c7 73
11 117 19 208 12 134 17 186 21 220 2 19 7 82 11 140 3 58 8 125 9 150 2 25 7
101 12 170 17 263 9 1092 -13 1295 -2 22 -6 69 -8 105 -5 63 -22 235 -31 295
-2 17 -7 53 -10 80 -3 28 -8 61 -10 75 -5 26 -9 52 -20 130 -6 46 -27 164 -45
255 -5 28 -12 66 -15 85 -4 19 -11 55 -16 80 -6 25 -13 56 -15 70 -3 14 -10
43 -16 65 -5 22 -12 51 -15 65 -9 54 -79 322 -113 435 -12 39 -27 93 -35 120
-16 57 -141 429 -155 460 -5 11 -42 106 -83 210 -42 105 -90 222 -107 260 -17
39 -48 106 -68 150 -41 90 -229 464 -286 569 -225 410 -576 945 -823 1256
-215 270 -282 353 -357 440 -50 58 -93 107 -96 110 -3 3 -23 25 -44 50 -155
178 -708 743 -836 854 -25 21 -67 60 -95 85 -52 48 -188 169 -240 213 -211
180 -260 221 -440 364 -228 183 -556 428 -785 587 -235 164 -918 607 -935 607
-3 0 -28 15 -57 34 -85 53 -328 195 -523 303 -172 95 -251 138 -467 252 -113
60 -595 301 -601 301 -3 0 -75 34 -162 75 -174 84 -512 235 -705 315 -69 28
-141 59 -160 67 -82 35 -113 48 -365 146 -362 142 -1041 378 -1083 376 -10 0
-87 -24 -172 -53z"/>
<path d="M9485 20332 c-26 -6 -345 -120 -465 -167 -97 -38 -112 -45 -213 -89
-32 -14 -62 -26 -67 -26 -6 0 -18 -4 -28 -10 -9 -5 -96 -46 -192 -90 -161 -75
-451 -222 -560 -284 -25 -14 -52 -29 -60 -33 -8 -3 -82 -47 -165 -96 -758
-453 -1332 -967 -1699 -1522 -51 -77 -115 -180 -141 -230 -27 -49 -58 -108
-70 -130 -32 -59 -129 -298 -158 -390 -63 -196 -110 -433 -124 -615 -9 -118
-9 -358 0 -425 59 -419 262 -772 622 -1083 124 -108 104 -92 210 -167 286
-204 675 -394 1078 -529 93 -31 214 -67 246 -73 13 -2 32 -8 42 -13 10 -6 28
-10 40 -10 41 0 7 -16 -116 -54 -429 -135 -950 -338 -1430 -559 -277 -127
-729 -355 -825 -416 -14 -8 -27 -16 -30 -16 -7 -1 -122 -67 -315 -183 -142
-84 -546 -345 -578 -372 -6 -6 -64 -48 -128 -94 -101 -72 -385 -290 -399 -306
-3 -3 -34 -30 -70 -60 -36 -30 -70 -59 -76 -65 -6 -5 -45 -39 -85 -75 -76 -66
-397 -384 -482 -477 -78 -85 -224 -261 -308 -373 -43 -58 -83 -110 -89 -117
-5 -7 -10 -16 -10 -22 0 -5 -4 -11 -8 -13 -11 -4 -112 -155 -180 -269 -268
-447 -450 -924 -530 -1394 -25 -142 -33 -211 -48 -390 -9 -105 -9 -436 -1
-550 18 -231 47 -425 97 -655 37 -166 34 -154 65 -264 159 -560 420 -1133 774
-1699 47 -76 91 -146 96 -155 45 -77 274 -404 404 -577 123 -164 471 -598 501
-625 3 -3 51 -57 105 -120 55 -63 107 -122 115 -130 8 -9 62 -68 120 -131 163
-177 248 -264 253 -259 2 3 7 32 10 65 23 241 137 546 312 835 167 276 373
528 690 846 310 310 567 534 970 843 66 51 127 98 135 104 8 7 31 23 50 37 19
13 37 27 40 30 8 9 311 228 430 310 402 279 898 604 1440 943 184 115 351 219
370 232 19 12 91 57 160 100 548 338 815 516 985 656 472 390 776 763 1021
1249 129 257 256 595 320 849 2 9 13 52 24 96 22 85 65 280 74 330 2 17 9 53
14 80 6 28 13 68 16 90 4 23 8 50 10 60 2 11 7 40 11 65 3 25 8 57 11 71 2 15
6 47 9 70 3 24 7 60 10 79 2 19 7 60 10 90 4 30 8 66 10 80 4 29 13 125 30
330 2 30 7 102 10 160 3 58 8 130 10 160 26 318 26 1509 -1 1935 -2 33 -6 112
-9 175 -3 63 -7 135 -10 160 -4 42 -11 129 -20 240 -8 99 -16 197 -20 235 -14
141 -27 253 -30 275 -2 14 -7 52 -10 85 -6 59 -12 106 -21 155 -2 14 -6 45 -9
70 -8 65 -36 249 -50 330 -4 19 -8 46 -10 60 -8 56 -17 107 -25 145 -5 22 -12
56 -15 75 -9 55 -65 321 -75 360 -5 19 -11 47 -14 61 -2 15 -21 91 -41 170
-160 631 -354 1156 -595 1609 -7 14 -17 32 -21 40 -40 75 -69 126 -110 193
-27 43 -49 80 -49 82 0 8 -188 277 -242 345 -243 308 -548 578 -798 704 -66
34 -98 44 -125 38z"/>
<path d="M14517 20295 c-422 -212 -868 -700 -1197 -1310 -63 -118 -65 -122
-115 -225 -187 -384 -368 -888 -494 -1381 -22 -85 -42 -166 -45 -180 -8 -41
-14 -63 -24 -104 -9 -34 -67 -311 -77 -370 -2 -11 -9 -47 -14 -80 -6 -33 -13
-71 -16 -85 -9 -43 -33 -193 -41 -250 -4 -30 -8 -57 -9 -60 -1 -3 -5 -32 -9
-65 -4 -32 -9 -67 -11 -76 -2 -9 -6 -40 -10 -70 -3 -30 -8 -65 -10 -79 -2 -14
-6 -50 -10 -80 -4 -30 -8 -66 -10 -80 -2 -14 -7 -54 -10 -89 -4 -36 -8 -79
-10 -95 -2 -17 -6 -60 -9 -96 -4 -36 -8 -85 -11 -110 -14 -134 -31 -379 -50
-710 -26 -471 -26 -1544 0 -1895 2 -33 7 -107 10 -165 8 -135 11 -167 30 -380
8 -82 26 -248 29 -267 2 -10 7 -44 11 -77 3 -32 8 -68 10 -80 2 -11 6 -43 10
-69 4 -27 8 -58 11 -70 2 -12 6 -39 10 -62 3 -22 10 -62 15 -90 5 -27 12 -66
15 -85 3 -19 19 -93 35 -165 123 -543 281 -960 514 -1350 279 -469 641 -849
1150 -1205 84 -59 442 -288 796 -509 705 -441 910 -570 1009 -635 36 -23 112
-74 170 -112 58 -38 110 -71 115 -74 23 -12 100 -66 103 -72 2 -5 7 -8 12 -8
23 0 638 -429 960 -669 186 -139 594 -460 615 -484 6 -7 39 -37 75 -67 36 -30
70 -59 76 -65 6 -5 44 -39 85 -75 131 -114 532 -521 635 -645 312 -375 495
-683 606 -1020 11 -33 22 -71 24 -84 3 -14 7 -27 9 -31 6 -10 36 -188 37 -225
1 -19 5 -35 9 -35 4 0 67 64 141 143 134 141 184 195 308 336 36 41 70 79 75
85 16 17 176 206 217 256 107 132 157 194 199 247 60 77 230 301 252 333 9 14
39 57 67 95 205 287 404 604 572 910 55 98 231 457 263 535 15 36 33 79 40 95
73 159 225 609 260 765 1 8 8 33 13 55 9 33 35 153 57 266 13 62 30 179 41
274 3 28 7 61 9 75 24 141 24 699 1 840 -3 14 -7 48 -10 75 -3 28 -8 61 -10
75 -3 14 -7 41 -10 60 -13 84 -49 254 -76 355 -31 115 -105 347 -122 378 -5
10 -11 26 -13 36 -6 33 -127 296 -195 427 -154 295 -383 631 -597 879 -38 44
-78 91 -89 104 -50 63 -463 470 -575 567 -525 455 -1067 825 -1739 1187 -167
90 -518 266 -645 324 -39 17 -104 47 -145 66 -367 169 -863 362 -1275 497
-104 34 -197 64 -205 67 -12 4 159 58 248 78 29 7 296 102 337 120 17 7 71 30
120 50 117 48 378 178 480 240 604 365 938 778 1046 1295 38 186 31 530 -17
790 -57 313 -175 630 -342 920 -45 79 -173 276 -204 315 -4 5 -35 46 -69 90
-190 246 -451 509 -729 736 -117 96 -272 212 -370 280 -36 24 -66 47 -68 52
-2 4 -8 7 -12 7 -5 0 -37 19 -72 43 -74 51 -303 194 -368 230 -25 13 -94 52
-153 85 -378 213 -919 455 -1352 607 -208 72 -187 71 -288 20z"/>
<path d="M12040 10288 c-7 -24 -36 -104 -63 -178 -302 -823 -700 -1345 -1463
-1921 -61 -46 -122 -91 -134 -99 -12 -8 -28 -20 -34 -26 -7 -6 -151 -106 -322
-221 -364 -246 -537 -370 -746 -538 -328 -263 -574 -497 -768 -730 -41 -49
-78 -92 -81 -95 -20 -16 -182 -268 -214 -334 l-39 -79 44 -85 c60 -113 267
-424 310 -462 3 -3 31 -38 63 -77 84 -106 136 -162 287 -313 496 -496 1109
-857 1790 -1056 85 -25 164 -48 175 -50 22 -4 18 -3 155 -34 52 -12 104 -23
115 -25 151 -27 212 -36 340 -50 33 -4 71 -9 85 -11 155 -25 887 -25 1040 0
14 3 52 7 85 10 33 4 71 8 85 11 14 2 45 7 70 10 25 3 54 7 65 9 11 2 40 7 65
10 25 4 52 9 60 11 8 2 29 7 45 10 63 11 236 50 300 69 154 43 211 61 315 98
268 93 603 251 805 379 485 306 869 658 1187 1089 123 168 278 419 278 452 0
9 -17 49 -37 89 -149 299 -475 666 -948 1065 -73 61 -201 164 -231 184 -12 8
-64 47 -115 86 -122 91 -243 176 -514 359 -581 392 -908 660 -1202 984 -130
144 -307 375 -368 482 -5 10 -37 64 -70 121 -117 201 -229 450 -332 735 -32
90 -61 163 -64 163 -3 0 -12 -19 -19 -42z m285 -2632 c48 -6 156 -22 220 -32
370 -59 869 -255 1290 -508 170 -103 543 -359 575 -395 3 -4 48 -40 100 -82
52 -42 106 -86 120 -98 14 -12 52 -45 85 -74 33 -28 140 -130 237 -226 202
-199 192 -167 94 -296 -166 -219 -406 -466 -641 -660 -26 -22 -58 -46 -69 -54
-12 -8 -23 -17 -26 -21 -17 -20 -353 -250 -365 -250 -3 0 -24 -12 -48 -27 -72
-45 -317 -167 -427 -212 -58 -24 -114 -47 -125 -51 -64 -27 -316 -106 -402
-125 -129 -29 -263 -56 -328 -65 -44 -6 -93 -13 -110 -15 -211 -31 -734 -25
-930 9 -16 3 -50 8 -75 11 -25 3 -54 7 -65 9 -11 2 -56 12 -100 20 -84 17 -89
18 -250 62 -99 26 -302 93 -360 119 -16 7 -74 32 -128 55 -266 114 -656 348
-832 501 -11 10 -63 53 -115 95 -126 103 -364 343 -471 474 -110 135 -169 214
-169 227 0 21 317 331 500 489 539 465 1119 807 1675 988 94 30 281 79 350 91
22 4 137 24 174 30 13 2 61 7 105 11 45 3 82 7 84 9 6 5 378 -3 427 -9z"/>
<path d="M11958 7455 c-1 -1 -28 -5 -58 -9 -353 -39 -703 -232 -925 -511 -22
-27 -42 -52 -45 -55 -28 -26 -169 -281 -174 -315 -1 -5 -4 -14 -8 -20 -21 -34
-66 -228 -76 -325 -43 -442 108 -851 426 -1155 180 -170 434 -308 652 -351 14
-3 32 -7 40 -9 8 -2 38 -7 65 -11 28 -3 59 -8 70 -10 31 -7 255 -6 300 1 22 3
55 8 74 11 72 10 210 48 295 82 77 30 255 124 290 153 6 5 36 28 66 51 174
133 329 336 422 550 159 369 149 777 -27 1143 -126 262 -337 480 -599 619
-128 68 -317 129 -471 151 -51 7 -310 16 -317 10z m549 -1201 c133 -39 254
-149 308 -282 117 -287 -26 -600 -316 -691 -100 -32 -256 -9 -357 52 -109 65
-197 189 -228 322 -12 48 -10 165 2 224 39 188 198 353 369 384 61 11 169 6
222 -9z"/>
<path d="M5977 5358 c-224 -223 -382 -402 -370 -421 4 -7 35 -48 69 -92 335
-437 597 -1041 678 -1560 18 -121 26 -189 27 -264 1 -34 6 -61 10 -61 5 0 30
15 56 34 110 78 340 174 498 207 33 7 65 14 70 15 39 9 153 25 220 31 150 15
600 7 690 -11 11 -2 45 -7 75 -10 30 -4 66 -8 80 -11 75 -12 148 -25 170 -29
61 -11 229 -48 265 -57 22 -6 47 -12 55 -14 35 -7 191 -55 259 -79 40 -14 114
-38 164 -52 213 -59 674 -265 985 -440 399 -224 792 -506 1142 -818 81 -72
424 -419 490 -496 36 -41 68 -77 71 -80 14 -11 257 -322 309 -395 94 -132 79
-126 130 -53 94 134 285 384 315 413 6 6 51 57 101 115 159 187 493 511 705
685 310 253 646 481 981 666 130 71 429 216 568 274 74 31 144 60 155 66 65
30 472 165 560 185 6 1 47 11 91 23 79 20 276 64 339 75 17 3 41 8 55 11 14 3
41 7 60 9 72 8 136 17 160 21 29 5 135 16 200 21 67 5 429 4 475 -1 22 -2 65
-7 95 -10 204 -21 465 -95 610 -174 79 -42 84 -45 132 -79 26 -17 49 -32 51
-32 3 0 6 37 6 83 1 45 3 93 5 107 3 14 7 49 10 77 5 44 19 118 52 283 24 120
114 384 192 565 123 287 270 540 459 790 l52 70 -297 298 c-163 163 -300 297
-304 297 -4 0 -26 -17 -50 -37 -24 -21 -66 -56 -93 -78 -27 -22 -62 -52 -79
-66 -17 -14 -71 -57 -121 -94 -49 -38 -92 -72 -95 -75 -9 -12 -315 -227 -430
-303 -63 -42 -119 -80 -125 -85 -5 -4 -26 -17 -45 -28 -19 -12 -102 -62 -184
-113 -81 -50 -149 -91 -151 -91 -1 0 -60 -33 -131 -73 -261 -148 -664 -342
-964 -463 -74 -30 -144 -59 -155 -64 -87 -38 -481 -172 -685 -233 -171 -51
-478 -133 -570 -151 -14 -3 -90 -18 -170 -35 -138 -28 -390 -74 -475 -86 -22
-3 -51 -7 -65 -10 -14 -2 -47 -7 -75 -10 -27 -3 -63 -8 -80 -11 -16 -2 -50 -6
-75 -9 -42 -3 -101 -9 -195 -20 -22 -3 -78 -7 -125 -11 -47 -3 -101 -8 -120
-10 -211 -22 -989 -22 -1220 0 -19 2 -82 7 -139 11 -57 4 -111 8 -120 10 -9 1
-47 6 -86 10 -120 11 -154 15 -183 19 -15 2 -52 8 -82 11 -30 4 -64 9 -75 11
-10 2 -37 6 -60 9 -58 9 -216 34 -245 40 -14 3 -47 9 -75 15 -27 5 -61 12 -75
14 -14 2 -58 12 -97 20 -40 9 -85 18 -100 21 -16 2 -43 9 -60 14 -18 5 -33 8
-33 6 0 -3 -11 0 -26 5 -14 6 -37 12 -52 15 -49 9 -66 13 -147 35 -44 12 -98
26 -120 31 -22 5 -51 14 -65 19 -14 5 -59 18 -100 31 -1198 350 -2321 958
-3297 1787 l-52 44 -204 -204z"/>
</g>
</svg>
